<?xml version="1.0" encoding="UTF-8" standalone="no"?>
<!-- Created with Inkscape (http://www.inkscape.org/) -->

<svg
   sodipodi:docname="Logo.svg"
   id="svg5"
   version="1.1"
   viewBox="0 0 132.29166 132.29167"
   height="500"
   width="500"
   inkscape:version="1.2 (dc2aedaf03, 2022-05-15)"
   xmlns:inkscape="http://www.inkscape.org/namespaces/inkscape"
   xmlns:sodipodi="http://sodipodi.sourceforge.net/DTD/sodipodi-0.dtd"
   xmlns:xlink="http://www.w3.org/1999/xlink"
   xmlns="http://www.w3.org/2000/svg"
   xmlns:svg="http://www.w3.org/2000/svg">
  <sodipodi:namedview
     id="namedview7"
     pagecolor="#ffffff"
     bordercolor="#000000"
     borderopacity="0.25"
     inkscape:showpageshadow="2"
     inkscape:pageopacity="0.0"
     inkscape:pagecheckerboard="0"
     inkscape:deskcolor="#d1d1d1"
     inkscape:document-units="mm"
     showgrid="false"
     showguides="true"
     inkscape:zoom="0.292"
     inkscape:cx="421.23288"
     inkscape:cy="294.52055"
     inkscape:window-width="1366"
     inkscape:window-height="745"
     inkscape:window-x="-8"
     inkscape:window-y="-8"
     inkscape:window-maximized="1"
     inkscape:current-layer="layer1" />
  <defs
     id="defs2">
    <linearGradient
       inkscape:collect="always"
       id="linearGradient6443">
      <stop
         style="stop-color:#5dfcc3;stop-opacity:1;"
         offset="0"
         id="stop6439" />
      <stop
         style="stop-color:#05b3e7;stop-opacity:1;"
         offset="1"
         id="stop6441" />
    </linearGradient>
    <linearGradient
       inkscape:collect="always"
       id="linearGradient6309">
      <stop
         style="stop-color:#5dfcc3;stop-opacity:1;"
         offset="0"
         id="stop6305" />
      <stop
         style="stop-color:#06baff;stop-opacity:1;"
         offset="1"
         id="stop6307" />
    </linearGradient>
    <linearGradient
       inkscape:collect="always"
       xlink:href="#linearGradient6443"
       id="linearGradient6205"
       x1="84.413521"
       y1="65.651314"
       x2="104.45365"
       y2="77.324966"
       gradientUnits="userSpaceOnUse"
       gradientTransform="matrix(0,-1.7563372,-1.7563372,0,220.85541,260.51539)" />
    <linearGradient
       inkscape:collect="always"
       xlink:href="#linearGradient6309"
       id="linearGradient6323"
       gradientUnits="userSpaceOnUse"
       gradientTransform="matrix(0,-1.7563372,-1.7563372,0,220.85532,221.75489)"
       x1="57.164761"
       y1="112.41936"
       x2="111.25148"
       y2="82.034393"
       spreadMethod="pad" />
  </defs>
  <g
     inkscape:label="Layer 1"
     inkscape:groupmode="layer"
     id="layer1"
     style="display:inline">
    <g
       id="g3781"
       transform="matrix(1.0988418,0,0,1.0988418,-6.5379702,-6.5379701)">
      <path
         id="circle2077"
         style="fill:url(#linearGradient6205);fill-opacity:1;stroke-width:0.23235;stroke-linecap:round;stroke-linejoin:round;paint-order:stroke fill markers"
         d="m 114.76253,104.99448 -0.001,0.001 c 0,0.39193 -0.0149,0.78058 -0.0433,1.16526 -0.23792,3.22064 -1.45356,6.16842 -3.35209,8.54873 l -0.0127,0.016 c -0.23605,0.29515 -0.48407,0.58078 -0.74056,0.85783 -0.009,0.0102 -0.0183,0.0204 -0.0275,0.0306 -0.25289,0.27172 -0.51553,0.53501 -0.78705,0.78811 -0.0151,0.0141 -0.0302,0.0282 -0.0454,0.0422 -0.27396,0.25334 -0.5567,0.49664 -0.84833,0.73 l -0.0243,0.019 c -0.30001,0.23912 -0.60905,0.46666 -0.9265,0.68352 -2.50059,1.7082 -5.52336,2.70812 -8.780099,2.70871 h -0.0031 c -0.390125,0 -0.778877,-0.0143 -1.165256,-0.0433 -0.381509,-0.0286 -0.760297,-0.0716 -1.136733,-0.12783 -0.0018,-2.7e-4 -0.0045,2.7e-4 -0.0063,0 -0.01479,-0.002 -0.02958,-0.005 -0.04436,-0.007 -0.372076,-0.0568 -0.741473,-0.12701 -1.107152,-0.21023 l -0.02748,-0.006 c -0.371438,-0.0852 -0.738496,-0.18389 -1.101869,-0.2958 l -0.01595,-0.005 c -0.360522,-0.11145 -0.715851,-0.23576 -1.067007,-0.37292 -0.01797,-0.007 -0.03593,-0.0148 -0.05387,-0.0222 -0.345205,-0.13632 -0.68687,-0.28412 -1.02158,-0.44476 -0.01304,-0.007 -0.02607,-0.0133 -0.03909,-0.02 -0.334867,-0.16189 -0.663781,-0.33509 -0.986717,-0.52083 -0.01621,-0.009 -0.03241,-0.0176 -0.04859,-0.0264 -0.316706,-0.18457 -0.627009,-0.38121 -0.930786,-0.58727 -0.02081,-0.014 -0.04159,-0.0281 -0.06233,-0.0423 -0.115833,-0.0794 -0.23059,-0.15932 -0.3444,-0.24193 -0.443592,-0.25913 -0.875516,-0.54106 -1.293085,-0.84409 -0.445487,-0.26013 -0.878129,-0.54293 -1.297313,-0.84727 -0.443965,-0.25937 -0.875313,-0.54085 -1.293084,-0.8441 -0.445207,-0.26004 -0.878511,-0.5421 -1.297313,-0.84621 -0.443632,-0.25922 -0.874682,-0.54011 -1.29203,-0.84304 -0.445016,-0.2599 -0.877744,-0.54134 -1.296255,-0.84515 -0.444266,-0.25954 -0.876365,-0.54087 -1.294142,-0.8441 -0.44369,-0.25919 -0.875876,-0.54138 -1.293085,-0.8441 -0.44582,-0.26029 -0.878286,-0.54203 -1.297312,-0.84621 -0.444598,-0.25973 -0.876266,-0.5418 -1.294142,-0.84515 -0.444379,-0.25957 -0.876524,-0.54101 -1.294144,-0.8441 -0.444648,-0.25969 -0.877396,-0.54194 -1.295198,-0.84516 -0.443929,-0.25927 -0.874925,-0.54045 -1.292028,-0.84304 -0.445407,-0.26001 -0.87791,-0.54268 -1.296256,-0.84621 -0.443599,-0.25904 -0.874279,-0.53982 -1.290973,-0.84198 -0.444973,-0.25968 -0.87736,-0.54215 -1.295198,-0.84516 -0.445747,-0.26011 -0.878859,-0.5416 -1.297313,-0.84515 -0.444916,-0.25974 -0.876487,-0.54221 -1.294142,-0.84516 -0.445137,-0.25985 -0.877413,-0.5421 -1.295198,-0.84515 -0.44639,-0.26059 -0.879558,-0.54328 -1.29837,-0.84727 -0.445817,-0.26037 -0.878022,-0.54257 -1.296253,-0.846209 -0.444608,-0.25978 -0.877043,-0.541376 -1.294144,-0.844096 C 61.079881,98.764032 60.64887,98.482912 60.232125,98.180524 59.787681,97.921025 59.356937,97.639783 58.940095,97.337482 58.494182,97.077227 58.061912,96.794536 57.64384,96.491272 57.196661,96.230191 56.762453,95.947234 56.343359,95.642948 55.898868,95.383204 55.466937,95.102314 55.050274,94.799907 54.604881,94.539777 54.173527,94.258706 53.75613,93.955808 53.310862,93.695748 52.87921,93.414469 52.461988,93.11171 52.016111,92.851337 51.58342,92.568645 51.165733,92.2655 50.72053,92.005458 50.288622,91.722962 49.871591,91.420347 49.427147,91.160758 48.995869,90.88032 48.579561,90.578362 48.133502,90.317974 47.700961,90.035162 47.283306,89.73215 46.838694,89.472541 46.4076,89.191037 45.991276,88.889109 45.547225,88.629949 45.117121,88.3485 44.701359,88.047164 44.253317,87.785918 43.819041,87.50184 43.399823,87.197785 42.953661,86.937336 42.520995,86.65552 42.103567,86.35263 41.660777,86.094062 41.232318,85.813073 40.817877,85.512759 L 69.325982,67.056713 c 2.92e-4,-5.44e-4 0.137337,-0.04332 0.137337,-0.04332 0.448615,0.261962 0.882892,0.545343 1.301538,0.849377 0.443085,0.258957 0.870798,0.539825 1.284634,0.839873 0.447414,0.261062 0.880743,0.543279 1.298369,0.84621 0.445603,0.260102 0.87598,0.541419 1.292028,0.843041 0.446231,0.260429 0.878599,0.543104 1.295199,0.845154 0.447845,0.261328 0.88143,0.543991 1.299426,0.847267 0.444601,0.259692 0.875802,0.540937 1.290973,0.841986 0.448637,0.261858 0.882857,0.546504 1.301536,0.850436 0.44335,0.259018 0.87267,0.539743 1.286747,0.839871 0.447967,0.261328 0.882373,0.543991 1.300482,0.847267 0.445323,0.259979 0.875172,0.541585 1.290973,0.843041 0.447412,0.261063 0.880745,0.543282 1.298367,0.846212 0.445607,0.2601 0.875978,0.54142 1.29203,0.843042 0.451106,0.263268 0.888123,0.549926 1.308932,0.855718 0.44298,0.2591 0.871969,0.538645 1.285691,0.838816 0.446222,0.260611 0.878629,0.542918 1.295198,0.845153 0.444604,0.259632 0.8758,0.540976 1.290973,0.841985 0.445724,0.260122 0.876925,0.541398 1.293087,0.843041 0.446343,0.260408 0.878492,0.543083 1.295199,0.845155 0.445533,0.259916 0.877079,0.541604 1.293087,0.84304 0.450401,0.262677 0.885533,0.547513 1.305761,0.852549 0.443984,0.259366 0.873179,0.541407 1.287805,0.841985 0.447839,0.261328 0.881432,0.544032 1.299424,0.847267 0.446218,0.260613 0.878632,0.54294 1.295202,0.845155 0.44621,0.260613 0.87863,0.542918 1.29519,0.845153 0.44622,0.260593 0.87864,0.5429 1.2952,0.845156 0.44573,0.260171 0.87695,0.542116 1.29309,0.843961 0.44634,0.260592 0.87851,0.541828 1.2952,0.844098 0.44589,0.260325 0.87679,0.542184 1.29309,0.844099 0.31931,0.186362 0.63166,0.38371 0.936,0.591608 0.31789,0.217154 0.62716,0.446155 0.92756,0.685631 0.007,0.0053 0.0147,0.01227 0.0222,0.01799 0.28806,0.230483 0.568,0.470532 0.83882,0.720493 0.0223,0.02106 0.0445,0.0422 0.0666,0.06339 0.26919,0.251403 0.52989,0.510992 0.78071,0.780712 0.003,0.0035 0.008,0.007 0.0106,0.01063 l 0.007,0.01063 c 0.25885,0.279292 0.50885,0.568585 0.74691,0.866284 0.004,0.0053 0.007,0.0084 0.0106,0.0137 1.89908,2.380378 3.11505,5.328781 3.35315,8.549791 0.0284,0.38434 0.0443,0.77259 0.0444,1.1642 v 0.001 z"
         sodipodi:nodetypes="cccccccscccssscsccccccccccccccccccccccccccccccccccccccccccccccccccccccccccccccccccccccccccccccccccccscccccccccsscc" />
      <path
         id="path6317"
         style="fill:url(#linearGradient6323);fill-opacity:1;stroke-width:0.23235;stroke-linecap:round;stroke-linejoin:round;paint-order:stroke fill markers"
         d="m 114.7619,66.235162 c 0,0.391941 -0.0149,0.780611 -0.0433,1.165266 -0.23793,3.220662 -1.45462,6.168426 -3.35315,8.548735 a 15.591377,15.591377 0 0 1 -0.0127,0.01595 c -0.0467,0.05845 -0.0961,0.114504 -0.14367,0.172195 -0.18992,0.231189 -0.38441,0.458654 -0.58739,0.678235 a 15.591377,15.591377 0 0 1 -0.0486,0.05176 c -0.24882,0.266723 -0.50757,0.524584 -0.77437,0.773315 -1.9e-4,1.74e-4 -8.7e-4,-1.72e-4 -0.001,0 a 15.591377,15.591377 0 0 1 -0.0454,0.04436 c -0.27386,0.253245 -0.55681,0.495657 -0.84833,0.728945 -0.004,0.0029 -0.007,0.0065 -0.0106,0.0096 a 15.591377,15.591377 0 0 1 -0.004,0.0033 c -0.30296,0.241852 -0.61418,0.471789 -0.93495,0.690914 -0.15578,0.106408 -0.31458,0.21069 -0.47435,0.31165 -2.4e-4,1.57e-4 -8e-4,-1.56e-4 -0.001,0 -0.15952,0.100786 -0.32051,0.19871 -0.48385,0.293692 -0.41555,0.300193 -0.84607,0.58104 -1.29098,0.839872 -0.41763,0.301872 -0.85106,0.582965 -1.29837,0.84304 -0.4177,0.301787 -0.84994,0.584113 -1.29731,0.844098 -0.41684,0.301031 -0.84882,0.582574 -1.29519,0.841985 -0.41597,0.300393 -0.84772,0.579867 -1.29309,0.838815 -0.41918,0.302847 -0.853551,0.586526 -1.302593,0.847267 -0.41548,0.299811 -0.845125,0.580336 -1.289918,0.838816 -0.416345,0.300664 -0.847277,0.58073 -1.293085,0.839873 -0.416888,0.301144 -0.848765,0.582474 -1.295198,0.841984 -0.416558,0.300903 -0.849144,0.581593 -1.295199,0.840928 -0.416708,0.301031 -0.847913,0.581499 -1.294142,0.84093 -0.415952,0.300485 -0.847717,0.581887 -1.293087,0.840927 -0.417434,0.301671 -0.850243,0.583122 -1.297312,0.843042 -0.416719,0.301029 -0.848962,0.581496 -1.295199,0.840927 -0.41596,0.300484 -0.847706,0.581891 -1.293085,0.84093 -0.418012,0.302082 -0.851701,0.583886 -1.299424,0.844096 -0.415522,0.30006 -0.847163,0.581163 -1.29203,0.839873 -0.416076,0.300632 -0.847569,0.580711 -1.293087,0.839872 -0.416616,0.301111 -0.849053,0.582458 -1.295198,0.841985 -0.417162,0.301505 -0.849489,0.583234 -1.296254,0.843041 -0.418006,0.302035 -0.851711,0.583932 -1.299426,0.844099 -0.415991,0.300387 -0.846629,0.579873 -1.292028,0.838813 -0.419202,0.302843 -0.853523,0.586534 -1.302595,0.847267 -0.415508,0.299805 -0.846149,0.580346 -1.290973,0.838816 -0.416375,0.300655 -0.847251,0.580735 -1.293085,0.839875 -0.416916,0.30114 -0.848739,0.58248 -1.295198,0.84198 -0.41659,0.3009 -0.848058,0.5816 -1.294144,0.84093 -0.415979,0.30048 -0.846629,0.5819 -1.292028,0.84093 -0.416706,0.30112 -0.848962,0.58141 -1.295198,0.84093 -0.417463,0.30167 -0.851272,0.58312 -1.29837,0.84304 -0.416745,0.30102 -0.848935,0.58256 -1.295199,0.84198 -0.415986,0.30048 -0.846625,0.58084 -1.292029,0.83987 -0.418038,0.30208 -0.852724,0.5839 -1.300482,0.8441 -0.415549,0.30006 -0.846075,0.58117 -1.290973,0.83987 -0.416103,0.30063 -0.847539,0.58073 -1.293084,0.83988 -0.416649,0.30111 -0.849026,0.58246 -1.295199,0.84198 -0.417193,0.3015 -0.850518,0.58324 -1.297312,0.84304 -0.41665,0.30103 -0.849034,0.58149 -1.295199,0.84093 -0.41716,0.30139 -0.849512,0.58334 -1.296256,0.84304 -0.419227,0.30284 -0.853496,0.58549 -1.302593,0.84621 -0.415532,0.2998 -0.845067,0.58036 -1.289916,0.83882 -0.414991,0.29963 -0.845658,0.57937 -1.289916,0.83776 -0.416992,0.30135 -0.848637,0.58229 -1.2952,0.84198 -0.41835,0.30231 -0.852374,0.58479 -1.30048,0.84516 -0.415322,0.29986 -0.845282,0.58025 -1.289918,0.83881 -0.416722,0.30112 -0.848943,0.58142 -1.295198,0.84093 -0.416964,0.30127 -0.849725,0.58342 -1.296256,0.84304 -0.418086,0.30205 -0.851621,0.58393 -1.299424,0.8441 -0.415022,0.29963 -0.844577,0.57937 -1.288859,0.83776 -0.418659,0.30254 -0.853075,0.58461 -1.301538,0.84515 -2.56369,1.85078 -5.711941,2.94325 -9.114991,2.94325 h -0.0011 a 15.591377,15.591377 0 0 0 -0.0011,0 c -3.672618,-4.2e-4 -7.047581,-1.27166 -9.710826,-3.3954 a 15.591377,15.591377 0 0 1 -0.02044,-0.018 c -0.292524,-0.23411 -0.57679,-0.47687 -0.851509,-0.73106 a 15.591377,15.591377 0 0 1 -0.04232,-0.0391 c -0.134723,-0.12554 -0.268116,-0.25329 -0.398279,-0.38349 -0.130225,-0.1302 -0.256851,-0.26356 -0.382435,-0.39828 a 15.591377,15.591377 0 0 1 -0.0413,-0.0433 c -0.254766,-0.27535 -0.498594,-0.56038 -0.733162,-0.8536 a 15.591377,15.591377 0 0 1 -0.01431,-0.017 c -2.124786,-2.66393 -3.394977,-6.03968 -3.396449,-9.71188 v -10e-4 c 0,-4.09584 1.580195,-7.82224 4.163424,-10.604565 a 15.591377,15.591377 0 0 1 0.0082,-0.0096 c 0.256749,-0.276092 0.52376,-0.542842 0.799726,-0.799726 a 15.591377,15.591377 0 0 1 0.03271,-0.02958 c 0.839979,-0.777441 1.764778,-1.464107 2.760474,-2.04316 0.416657,-0.301109 0.849036,-0.581413 1.295213,-0.840928 0.41723,-0.301505 0.850487,-0.584301 1.297298,-0.844098 0.415779,-0.300383 0.846869,-0.579845 1.292024,-0.838816 0.418231,-0.302268 0.851448,-0.584804 1.299445,-0.845153 0.415553,-0.300105 0.847093,-0.580065 1.292024,-0.838816 0.418619,-0.302532 0.85204,-0.585677 1.300466,-0.84621 0.415329,-0.299868 0.845274,-0.579203 1.289919,-0.837761 0.416452,-0.300878 0.848197,-0.581586 1.294162,-0.840927 0.417745,-0.301894 0.850922,-0.584022 1.298367,-0.844099 0.416778,-0.301019 0.848897,-0.581515 1.295199,-0.840927 0.415655,-0.300236 0.846991,-0.581023 1.29203,-0.839873 0.418096,-0.302137 0.850554,-0.583843 1.298367,-0.844096 0.416111,-0.300498 0.848631,-0.581895 1.294144,-0.84093 0.416653,-0.301019 0.849019,-0.5815 1.295198,-0.840927 0.415038,-0.29984 0.844524,-0.580238 1.288859,-0.838816 0.420663,-0.304112 0.857127,-0.587681 1.307876,-0.849381 0.414977,-0.299445 0.844638,-0.579542 1.288861,-0.837759 0.417122,-0.301262 0.849567,-0.582394 1.296256,-0.841984 0.415847,-0.300349 0.846782,-0.580949 1.292028,-0.839871 0.416955,-0.301271 0.848681,-0.582368 1.295198,-0.841987 0.416692,-0.301017 0.848995,-0.582555 1.295199,-0.841984 0.416132,-0.300629 0.848573,-0.580726 1.294144,-0.839871 0.416673,-0.301115 0.849,-0.582486 1.295198,-0.841986 0.417222,-0.301508 0.84943,-0.583243 1.296256,-0.843042 0.418057,-0.302016 0.851654,-0.583947 1.299424,-0.844096 0.41642,-0.300649 0.847204,-0.580761 1.293085,-0.839873 0.418928,-0.302564 0.852789,-0.585691 1.301538,-0.84621 0.41467,-0.299156 0.843937,-0.578716 1.287804,-0.836702 0.416018,-0.300491 0.846593,-0.581903 1.292028,-0.840929 0.416414,-0.300878 0.849301,-0.580532 1.295199,-0.839871 0.417215,-0.301512 0.849438,-0.583244 1.296255,-0.843041 0.416674,-0.301019 0.849009,-0.582558 1.295199,-0.841987 0.41613,-0.300612 0.847514,-0.580724 1.293087,-0.839871 0.416671,-0.301107 0.849,-0.582459 1.295198,-0.841988 0.417218,-0.3015 0.850495,-0.583251 1.297313,-0.843046 0.0027,-0.0019 0.0057,-0.0041 0.0084,-0.0061 -0.01247,-0.0082 -0.02553,-0.01635 -0.03803,-0.02637 -0.444974,-0.259672 -0.87736,-0.542139 -1.295199,-0.845151 -0.445746,-0.260101 -0.877801,-0.541607 -1.296255,-0.845151 -0.444916,-0.259734 -0.877544,-0.5422 -1.295199,-0.845151 -0.445137,-0.259857 -0.877413,-0.542098 -1.295199,-0.845151 -0.44639,-0.260593 -0.8785,-0.544347 -1.29731,-0.84832 -0.44582,-0.260388 -0.879079,-0.541526 -1.297312,-0.845172 -0.444608,-0.259774 -0.875986,-0.541354 -1.293087,-0.84408 -0.444272,-0.259529 -0.875283,-0.540646 -1.292028,-0.843045 -0.444444,-0.259489 -0.876246,-0.541792 -1.293087,-0.844089 -0.445914,-0.260265 -0.878184,-0.541893 -1.296256,-0.845151 -0.447177,-0.261083 -0.881387,-0.54404 -1.300481,-0.84834 -0.444888,-0.25983 -0.875763,-0.540722 -1.292427,-0.843121 -0.445392,-0.260143 -0.876746,-0.542262 -1.294143,-0.845172 -0.445266,-0.26006 -0.876921,-0.541321 -1.294142,-0.844088 -0.445877,-0.260367 -0.878568,-0.542016 -1.296256,-0.845151 -0.445202,-0.26004 -0.87711,-0.542548 -1.294141,-0.845151 -0.444444,-0.259591 -0.876779,-0.540033 -1.293087,-0.842003 -0.446057,-0.260388 -0.877544,-0.543202 -1.295199,-0.846214 -0.444609,-0.259611 -0.876761,-0.541117 -1.293085,-0.843046 -0.444051,-0.259202 -0.874156,-0.541709 -1.289916,-0.843045 -0.448041,-0.261247 -0.882317,-0.544265 -1.301538,-0.84832 -0.446161,-0.260449 -0.87777,-0.542262 -1.295198,-0.845151 -0.44279,-0.258569 -0.872304,-0.539563 -1.286748,-0.839877 -0.450307,-0.262514 -0.886898,-0.548047 -1.307875,-0.853595 -0.444003,-0.259549 -0.874545,-0.539522 -1.289918,-0.840939 -0.445616,-0.260184 -0.877415,-0.541812 -1.294142,-0.844089 -0.44618,-0.260489 -0.879089,-0.543569 -1.296256,-0.846214 -0.4451,-0.259917 -0.875945,-0.54128 -1.292029,-0.843045 -0.444359,-0.259366 -0.874427,-0.53989 -1.289919,-0.84092 -0.447874,-0.261205 -0.880988,-0.544858 -1.299424,-0.84832 -0.44767,-0.261225 -0.880211,-0.544898 -1.298381,-0.84834 -0.444849,-0.259815 -0.876389,-0.540565 -1.292024,-0.841982 -0.446239,-0.260552 -0.878372,-0.543856 -1.295193,-0.846215 -0.446627,-0.260817 -0.880293,-0.542466 -1.297318,-0.845151 -0.443786,-0.259181 -0.87322,-0.539501 -1.287813,-0.839877 -0.654393,-0.38176 -1.278572,-0.810581 -1.867792,-1.280391 a 15.591377,15.591377 0 0 1 -0.02106,-0.0184 c -0.292524,-0.234098 -0.575747,-0.477947 -0.850446,-0.73212 a 15.591377,15.591377 0 0 1 -0.04232,-0.03905 c -0.134717,-0.125518 -0.268089,-0.252267 -0.398273,-0.38243 -0.136358,-0.136358 -0.270017,-0.275843 -0.401447,-0.417291 a 15.591377,15.591377 0 0 1 -0.0061,-0.0061 C 21.428268,33.4562 21.179471,33.164902 20.939895,32.865446 a 15.591377,15.591377 0 0 1 -0.01431,-0.0184 c -2.124787,-2.663694 -3.394977,-6.039556 -3.396449,-9.71293 v -0.0011 c 0,-4.50346 1.911889,-8.56113 4.966319,-11.407466 a 15.591377,15.591377 0 0 1 0.04334,-0.0413 c 2.780263,-2.5711478 6.49798,-4.1423059 10.583453,-4.1423059 3.414025,0 6.571122,1.0984042 9.139289,2.9601449 0.451747,0.263598 0.889683,0.549478 1.311045,0.855721 0.440085,0.257403 0.866011,0.535576 1.277239,0.833539 0.447339,0.260837 0.879727,0.543529 1.297312,0.846214 0.446959,0.260756 0.87902,0.543713 1.296256,0.846214 0.447574,0.261165 0.881659,0.544204 1.299424,0.847257 0.445227,0.259959 0.875252,0.541608 1.290973,0.843046 0.446709,0.260694 0.879243,0.542711 1.296256,0.845151 0.449882,0.262616 0.884956,0.546575 1.304707,0.851489 0.443988,0.25959 0.87425,0.541178 1.288859,0.841982 0.446228,0.260613 0.878623,0.542936 1.295198,0.845172 0.444121,0.259386 0.874107,0.539236 1.288861,0.839856 0.446354,0.260408 0.878487,0.54312 1.295199,0.845172 0.447977,0.261348 0.88131,0.543937 1.299424,0.847256 0.443919,0.259202 0.874275,0.540504 1.288859,0.84092 0.449169,0.261962 0.882379,0.54633 1.301539,0.850446 0.445167,0.259917 0.876364,0.541689 1.292029,0.843045 0.446229,0.260409 0.878601,0.5431 1.295199,0.845151 0.447846,0.261349 0.881428,0.543979 1.299424,0.847257 0.446231,0.260613 0.878622,0.542937 1.295199,0.845172 0.446372,0.260694 0.878498,0.542793 1.295199,0.845151 0.445731,0.260347 0.87694,0.54218 1.293086,0.844088 0.448613,0.261962 0.88289,0.545349 1.301537,0.849383 0.443084,0.258957 0.871856,0.539829 1.28569,0.839877 0.447414,0.261062 0.879686,0.542221 1.297312,0.845151 0.445606,0.260102 0.877037,0.542466 1.293087,0.844088 0.446229,0.260429 0.878597,0.542057 1.295199,0.844109 0.447844,0.261328 0.881428,0.545042 1.299424,0.84832 0.444601,0.259692 0.875802,0.540933 1.290973,0.841982 0.448637,0.26186 0.882859,0.546514 1.301536,0.850446 0.44335,0.259018 0.87267,0.539747 1.286748,0.839857 0.447966,0.261328 0.881317,0.543999 1.299424,0.847277 0.445323,0.259979 0.876229,0.541587 1.29203,0.843045 0.447412,0.261063 0.879688,0.543284 1.297312,0.846215 0.445607,0.260101 0.877033,0.541403 1.293085,0.843025 0.451106,0.26327 0.887068,0.548885 1.307878,0.854677 0.442978,0.2591 0.873023,0.539686 1.286745,0.839857 0.446222,0.260612 0.878629,0.542936 1.295201,0.845171 0.444601,0.259632 0.874741,0.539911 1.289916,0.84092 0.445723,0.260122 0.877979,0.542445 1.294141,0.844088 0.446343,0.260408 0.878493,0.5431 1.295199,0.845172 0.445533,0.259917 0.876023,0.541586 1.29203,0.843025 0.450403,0.262677 0.885535,0.547515 1.305764,0.852551 0.443981,0.259366 0.873179,0.540361 1.287802,0.84094 0.447839,0.261328 0.882489,0.545083 1.300481,0.84832 0.446218,0.260613 0.878632,0.542936 1.295202,0.845151 0.44621,0.260613 0.87863,0.542916 1.29519,0.845151 0.44622,0.260593 0.87864,0.541853 1.2952,0.844109 0.44573,0.260306 0.87695,0.542241 1.29309,0.844088 0.44634,0.260592 0.87851,0.542895 1.2952,0.845172 0.44589,0.260326 0.87679,0.54218 1.29308,0.844108 0.31932,0.186444 0.63167,0.383703 0.93601,0.591592 0.31789,0.21717 0.62716,0.446157 0.92756,0.685631 0.007,0.0061 0.0137,0.01227 0.0211,0.0184 0.28805,0.2305 0.56799,0.470546 0.83881,0.720508 a 15.591377,15.591377 0 0 1 0.0676,0.06337 c 0.26919,0.251393 0.52988,0.510983 0.78071,0.780714 0.003,0.0041 0.007,0.0061 0.01,0.01022 a 15.591377,15.591377 0 0 1 0.008,0.01022 c 0.13335,0.143922 0.26288,0.291667 0.39088,0.440535 0.12048,0.140038 0.23955,0.281404 0.35497,0.425735 0.004,0.0061 0.007,0.0082 0.0106,0.01431 0.13159,0.164978 0.25961,0.333636 0.38454,0.50393 0.11833,0.161299 0.23327,0.325316 0.34546,0.491235 0.0326,0.04825 0.0641,0.09731 0.0961,0.145761 0.0786,0.118981 0.15598,0.238923 0.23136,0.360254 0.0358,0.05765 0.0705,0.116119 0.10565,0.174383 0.0733,0.121433 0.14545,0.243971 0.21551,0.367634 0.0312,0.05499 0.0614,0.110394 0.0919,0.165796 0.0718,0.130429 0.14208,0.26141 0.21023,0.394067 0.0267,0.05193 0.0531,0.104057 0.0792,0.156392 0.0622,0.1245 0.1228,0.249737 0.1817,0.376077 0.032,0.06848 0.0641,0.136971 0.0951,0.206008 0.0596,0.132678 0.11628,0.266766 0.17219,0.401448 0.0216,0.05193 0.0445,0.103034 0.0655,0.15537 0.0768,0.190737 0.15038,0.383469 0.21974,0.577865 0.0685,0.191964 0.13329,0.385706 0.19439,0.581043 10e-4,0.0041 0.002,0.0061 0.003,0.01022 0.0215,0.06889 0.0397,0.138811 0.0602,0.208134 0.0403,0.135744 0.0806,0.27153 0.11727,0.408828 0.0208,0.07809 0.0395,0.157005 0.0592,0.235589 0.0287,0.114484 0.0573,0.228864 0.0834,0.344411 0.0233,0.103034 0.0443,0.206867 0.0655,0.310596 0.0214,0.104671 0.042,0.209484 0.0613,0.314809 0.0188,0.10283 0.036,0.205987 0.0528,0.309533 0.0172,0.105693 0.0336,0.211692 0.0486,0.317998 0.0137,0.09629 0.0272,0.192577 0.0391,0.289458 0.0151,0.123478 0.0279,0.247447 0.0401,0.371866 0.009,0.08975 0.018,0.179288 0.0254,0.269403 0.003,0.03435 0.007,0.06808 0.01,0.102421 0.007,0.08872 0.01,0.178267 0.0147,0.267278 0.005,0.09363 0.011,0.187057 0.0147,0.281015 0.008,0.204025 0.0137,0.409727 0.0137,0.615899 v 0.0011 a 15.591377,15.591377 0 0 1 0,0.0011 z" />
    </g>
  </g>
</svg>
